<svg width="201" height="50" viewBox="0 0 201 50" fill="none" xmlns="http://www.w3.org/2000/svg">
<path d="M19.9609 0.742188C19.7266 1.13281 19.4531 2.1875 19.2969 3.08594C19.0625 4.53125 18.8672 4.76562 17.2656 5.46875C15.0781 6.44531 15.0781 6.44531 13.3594 5.27344C12.5781 4.72656 11.5625 4.29688 11.1328 4.29688C10.0781 4.29688 4.29688 10.1172 4.29688 11.1328C4.33594 11.5625 4.80469 12.6172 5.42969 13.4375L6.52344 15L5.74219 16.7578C4.84375 18.8672 4.6875 18.9844 2.46094 19.3359C1.40625 19.4922 0.625 19.8438 0.390625 20.3125C0.195312 20.7031 0 22.8906 0 25.1562C0 29.8047 0.195312 30.1562 3.35938 30.6641C4.84375 30.8984 4.96094 31.0156 5.625 32.9688L6.32812 35.0781L5.3125 36.5625C4.76562 37.3828 4.29688 38.3594 4.29688 38.6719C4.29688 39.0234 5.78125 40.7812 7.61719 42.5781L10.9766 45.8984L12.8125 44.8828L14.6484 43.8672L14.7656 39.0625C14.8828 34.4922 14.8047 34.1797 13.9062 32.8516C12.0703 30.2344 11.5625 28.5156 11.5625 25C11.5234 22.1484 11.6797 21.3281 12.6562 19.2578C13.9453 16.4453 16.4453 13.9062 19.3359 12.5C22.0312 11.1328 27.7734 11.0938 30.5469 12.3828C33.3203 13.6328 36.0547 16.4062 37.3438 19.2578C38.3203 21.3281 38.4766 22.1484 38.4766 25C38.4375 28.4766 37.6953 30.8594 35.9375 33.0859C35.2344 33.9844 35.1562 34.6484 35.1562 38.8281V43.5547L36.875 44.6094C37.8125 45.2344 38.7109 45.7031 38.9062 45.7031C39.5312 45.7031 45.7031 39.2969 45.7031 38.6719C45.7031 38.3203 45.2344 37.3828 44.6875 36.5625L43.6719 35.0781L44.375 33.0078C45.0391 31.0547 45.1562 30.9375 46.6406 30.6641C49.7656 30.1953 50 29.8438 50 25.1562C50 22.8906 49.8047 20.7031 49.6094 20.3125C49.375 19.8438 48.5938 19.4922 47.5391 19.3359C45.3125 18.9844 45.1562 18.8672 44.2578 16.7578L43.4766 15L44.5703 13.4375C45.1953 12.6172 45.6641 11.5625 45.7031 11.1328C45.7031 10.0781 39.9219 4.29688 38.8672 4.29688C38.4375 4.29688 37.3828 4.76562 36.5625 5.3125L35.0781 6.32812L33.0859 5.58594C31.1719 4.84375 31.0938 4.72656 30.6641 2.89062C30.4297 1.83594 30.0781 0.742188 29.9219 0.46875C29.7266 0.15625 28.2031 0 25 0C20.8594 0 20.3125 0.078125 19.9609 0.742188Z" fill="#1AB248"/>
<path d="M18.9453 18.0469C14.5703 21.8359 14.8047 28.9062 19.4141 32.1484L21.0938 33.3594V41.2109C21.0938 46.7969 21.2109 49.1797 21.5625 49.5312C22.1875 50.1562 27.8125 50.1562 28.4375 49.5312C28.7891 49.1797 28.9063 46.7969 28.9063 41.1328V33.2422L30.0781 32.6172C32.6563 31.2891 34.7656 26.6406 34.1797 23.5547C33.7891 21.4453 32.6563 19.4141 31.0547 18.0469C28.6719 15.9375 28.0469 16.2891 27.5391 19.9219C26.9922 23.9844 27.1094 23.8281 25 23.8281C22.8906 23.8281 23.0078 23.9844 22.4609 19.9219C21.9531 16.2891 21.3281 15.9375 18.9453 18.0469Z" fill="#F3CC00"/>
<path d="M56.7004 18.4297C56.268 20.8791 58.1522 23.125 60.6395 23.125H64.27C66.2231 23.125 67.8548 22.6774 69.165 21.7822C70.4753 20.887 71.2687 19.646 71.5454 18.0591C71.7651 16.8221 71.6512 15.8577 71.2036 15.166C70.7607 14.4815 70.1504 14.032 69.3727 13.8177C69.3583 13.8137 69.3481 13.8006 69.3481 13.7857C69.3481 13.7716 69.3571 13.7591 69.3703 13.7544C70.0853 13.5007 70.7086 13.0516 71.2402 12.4072C71.7855 11.7562 72.1436 10.9342 72.3145 9.94141C72.5749 8.4847 72.2819 7.35758 71.4355 6.56006C70.5892 5.75439 69.161 5.35156 67.1509 5.35156H62.3646C60.4237 5.35156 58.7628 6.74491 58.4255 8.65627L56.7004 18.4297ZM63.8306 19.5605C62.8428 19.5605 62.0938 18.6697 62.2634 17.6966L62.3461 17.222C62.5127 16.2663 63.3423 15.5688 64.3123 15.5688H64.5264C65.1611 15.5688 65.5965 15.752 65.8325 16.1182C66.0767 16.4844 66.1458 16.9645 66.04 17.5586C65.9342 18.1608 65.6942 18.645 65.3198 19.0112C64.9536 19.3774 64.4572 19.5605 63.8306 19.5605ZM64.8315 12.6514C63.9537 12.6514 63.2896 11.8573 63.4449 10.9933L63.5277 10.5324C63.6818 9.67458 64.4282 9.05029 65.2998 9.05029H65.4663C66.0685 9.05029 66.4754 9.20898 66.687 9.52637C66.8986 9.83561 66.9515 10.2751 66.8457 10.8447C66.748 11.4144 66.5365 11.8579 66.2109 12.1753C65.8854 12.4927 65.4256 12.6514 64.8315 12.6514Z" fill="#1AB248"/>
<path d="M74.6509 14.751C74.13 17.7214 74.48 19.9105 75.7007 21.3184C76.9295 22.7181 78.7891 23.418 81.2793 23.418C83.5661 23.418 85.4663 22.8768 86.98 21.7944C88.5018 20.7039 89.4336 19.2147 89.7754 17.3267C89.8959 16.6861 89.4046 16.0938 88.7528 16.0938H85.7763C85.1241 16.0938 84.5661 16.5622 84.4531 17.2046C84.2985 18.0265 84.0218 18.6369 83.623 19.0356C83.2324 19.4344 82.7035 19.6338 82.0361 19.6338C81.263 19.6338 80.7218 19.3652 80.4126 18.8281C80.1034 18.291 80.0545 17.4121 80.2661 16.1914L80.9497 12.2852C81.1776 11.04 81.5397 10.1693 82.0361 9.67285C82.5407 9.16829 83.1551 8.91602 83.8794 8.91602C84.563 8.91602 85.0431 9.08691 85.3198 9.42871C85.5965 9.77051 85.6738 10.2954 85.5518 11.0034C85.4181 11.7545 85.9956 12.4438 86.7585 12.4438H89.5743C90.1932 12.4438 90.7242 12.0025 90.8374 11.394C91.2036 9.31885 90.813 7.74414 89.6655 6.66992C88.5181 5.5957 86.8009 5.05859 84.5142 5.05859C82.0646 5.05859 79.9691 5.75033 78.2275 7.13379C76.4941 8.50911 75.363 10.7064 74.834 13.7256L74.6509 14.751Z" fill="#1AB248"/>
<path d="M92.4035 18.4297C91.9711 20.8791 93.8553 23.125 96.3426 23.125H102.871C103.871 23.125 104.727 22.4074 104.902 21.4226C105.126 20.1587 104.154 18.999 102.871 18.999H99.4469C98.5244 18.999 97.8257 18.1658 97.9864 17.2574C98.1118 16.549 98.7274 16.0327 99.4469 16.0327H103.014C103.945 16.0327 104.741 15.3638 104.902 14.4469C105.107 13.274 104.205 12.1997 103.014 12.1997H100.427C99.6177 12.1997 99.005 11.4681 99.1472 10.6713C99.2578 10.0512 99.7971 9.59961 100.427 9.59961H105.025C106.057 9.59961 106.939 8.8584 107.117 7.84231C107.345 6.5424 106.345 5.35156 105.025 5.35156H98.0677C96.1268 5.35156 94.466 6.74491 94.1286 8.65627L92.4035 18.4297Z" fill="#1AB248"/>
<path d="M63.3423 40.2954C62.6424 40.2954 62.1419 40.1367 61.8408 39.8193C61.5397 39.4938 61.4502 38.9648 61.5723 38.2324C61.5977 38.0926 61.4903 37.9639 61.3481 37.9639H56.4865C56.3351 37.9639 56.2051 38.0715 56.1768 38.2202C55.835 40.1408 56.2459 41.5934 57.4097 42.5781C58.5734 43.5547 60.3475 44.043 62.7319 44.043C65.035 44.043 66.9434 43.5384 68.457 42.5293C69.9788 41.5202 70.8862 40.1978 71.1792 38.562C71.3827 37.4146 71.2402 36.495 70.752 35.8032C70.2686 35.1184 69.6217 34.6649 68.8113 34.4427C68.7968 34.4387 68.7866 34.4256 68.7866 34.4105C68.7866 34.3965 68.7954 34.384 68.8085 34.3792C69.6698 34.0618 70.4031 33.5843 71.0083 32.9468C71.6187 32.2957 72.0133 31.4535 72.1924 30.4199C72.4447 29.012 72.0296 27.8687 70.9473 26.9897C69.873 26.1108 68.2373 25.6714 66.04 25.6714C63.5986 25.6714 61.6618 26.1719 60.2295 27.1729C58.8053 28.1657 57.9305 29.5858 57.605 31.4331C57.5798 31.5526 57.671 31.665 57.7932 31.665H62.6074C62.7627 31.665 62.8941 31.5503 62.915 31.3965C63.0371 30.7536 63.2772 30.2694 63.6353 29.9438C64.0015 29.6102 64.5182 29.4434 65.1855 29.4434C65.7959 29.4434 66.2231 29.5858 66.4673 29.8706C66.7114 30.1473 66.7887 30.5583 66.6992 31.1035C66.5934 31.7139 66.3656 32.1574 66.0156 32.4341C65.6657 32.7026 65.1693 32.8369 64.5264 32.8369H64.1768C63.2705 32.8369 62.495 33.4875 62.3376 34.38L62.305 34.5647C62.1201 35.612 62.9258 36.5723 63.9893 36.5723C64.6973 36.5723 65.1937 36.7147 65.4785 36.9995C65.7715 37.2843 65.861 37.7441 65.7471 38.3789C65.6331 39.0055 65.3727 39.4816 64.9658 39.8071C64.5589 40.1326 64.0177 40.2954 63.3423 40.2954Z" fill="#1AB248"/>
<path d="M73.4065 40.3897C72.6065 41.9183 73.7153 43.75 75.4406 43.75C76.3233 43.75 77.1279 43.2439 77.5101 42.4482L82.1094 32.8735C82.2477 32.5724 82.3657 32.2998 82.4634 32.0557C82.565 31.8134 82.644 31.6125 82.7006 31.4528C82.7048 31.441 82.7159 31.4331 82.7284 31.4331C82.744 31.4331 82.757 31.4454 82.7577 31.461C82.7654 31.6194 82.7731 31.8176 82.7808 32.0557C82.7889 32.2998 82.8133 32.5765 82.854 32.8857L84.0581 41.3911C84.2497 42.7442 85.4079 43.75 86.7745 43.75C88.472 43.75 89.7621 42.224 89.4796 40.5502L87.5792 29.2867C87.2544 27.3615 85.5873 25.9521 83.635 25.9521H83.3833C81.8948 25.9521 80.5294 26.7787 79.8392 28.0975L73.4065 40.3897ZM77.311 38.3053C76.8214 39.5131 77.7103 40.8325 79.0136 40.8325H84.1622C85.2248 40.8325 86.0658 39.9338 85.9953 38.8736C85.9312 37.9083 85.1296 37.1582 84.1622 37.1582H79.0136C78.2654 37.1582 77.592 37.6119 77.311 38.3053Z" fill="#1AB248"/>
<path d="M92.654 40.5403C92.3584 42.2147 93.6464 43.75 95.3468 43.75C96.6739 43.75 97.8095 42.797 98.0397 41.4899L99.7402 31.8366C99.9031 30.9114 100.707 30.2368 101.646 30.2368C102.85 30.2368 103.761 31.3231 103.553 32.5081L102.138 40.5401C101.843 42.2148 103.131 43.75 104.832 43.75C106.159 43.75 107.295 42.7972 107.525 41.4901L109.435 30.6719C109.867 28.2225 107.983 25.9766 105.496 25.9766H98.5804C96.6395 25.9766 94.9787 27.3699 94.6413 29.2813L92.654 40.5403Z" fill="#1AB248"/>
<path d="M118.386 31.1768L118.737 29.1857C119.032 27.5113 117.743 25.9766 116.043 25.9766C114.716 25.9766 113.58 26.93 113.35 28.2375L112.747 31.665C112.364 33.8053 112.584 35.3719 113.406 36.3647C114.236 37.3494 115.79 37.8418 118.069 37.8418C118.931 37.8418 119.802 37.793 120.681 37.6953C121.259 37.6257 121.921 37.5087 122.668 37.3441C123.424 37.1776 123.99 36.5592 124.125 35.7973L124.177 35.5071C124.393 34.2881 123.324 33.247 122.097 33.4106C121.495 33.4839 120.844 33.5205 120.144 33.5205C119.363 33.5205 118.834 33.3577 118.557 33.0322C118.289 32.6986 118.232 32.0801 118.386 31.1768ZM128.098 29.1868C128.394 27.5121 127.105 25.9766 125.405 25.9766C124.078 25.9766 122.942 26.9292 122.712 28.236L120.54 40.5398C120.244 42.2145 121.532 43.75 123.233 43.75C124.56 43.75 125.695 42.7974 125.926 41.4906L128.098 29.1868Z" fill="#1AB248"/>
<path d="M129.354 40.3897C128.554 41.9183 129.663 43.75 131.388 43.75C132.271 43.75 133.075 43.2439 133.457 42.4482L138.057 32.8735C138.195 32.5724 138.313 32.2998 138.411 32.0557C138.512 31.8134 138.591 31.6125 138.648 31.4528C138.652 31.441 138.663 31.4331 138.676 31.4331C138.691 31.4331 138.704 31.4454 138.705 31.461C138.713 31.6194 138.72 31.8176 138.728 32.0557C138.736 32.2998 138.761 32.5765 138.801 32.8857L140.005 41.3911C140.197 42.7442 141.355 43.75 142.722 43.75C144.419 43.75 145.709 42.224 145.427 40.5502L143.526 29.2867C143.202 27.3615 141.535 25.9521 139.582 25.9521H139.331C137.842 25.9521 136.477 26.7787 135.786 28.0975L129.354 40.3897ZM133.258 38.3053C132.769 39.5131 133.658 40.8325 134.961 40.8325H140.109C141.172 40.8325 142.013 39.9338 141.943 38.8736C141.878 37.9083 141.077 37.1582 140.109 37.1582H134.961C134.213 37.1582 133.539 37.6119 133.258 38.3053Z" fill="#1AB248"/>
<path d="M149.06 35.376C148.539 38.3464 148.889 40.5355 150.11 41.9434C151.339 43.3431 153.198 44.043 155.688 44.043C157.975 44.043 159.875 43.5018 161.389 42.4194C162.911 41.3289 163.843 39.8397 164.185 37.9517C164.305 37.3111 163.814 36.7188 163.162 36.7188H160.186C159.533 36.7188 158.975 37.1872 158.862 37.8296C158.708 38.6515 158.431 39.2619 158.032 39.6606C157.642 40.0594 157.113 40.2588 156.445 40.2588C155.672 40.2588 155.131 39.9902 154.822 39.4531C154.513 38.916 154.464 38.0371 154.675 36.8164L155.359 32.9102C155.587 31.665 155.949 30.7943 156.445 30.2979C156.95 29.7933 157.564 29.541 158.289 29.541C158.972 29.541 159.452 29.7119 159.729 30.0537C160.006 30.3955 160.083 30.9204 159.961 31.6284C159.827 32.3795 160.405 33.0688 161.168 33.0688H163.983C164.602 33.0688 165.133 32.6275 165.247 32.019C165.613 29.9438 165.222 28.3691 164.075 27.2949C162.927 26.2207 161.21 25.6836 158.923 25.6836C156.474 25.6836 154.378 26.3753 152.637 27.7588C150.903 29.1341 149.772 31.3314 149.243 34.3506L149.06 35.376Z" fill="#1AB248"/>
<path d="M167.753 27.9299C167.543 29.1275 168.465 30.2246 169.681 30.2246C170.898 30.2246 171.82 31.3238 171.608 32.5223L170.196 40.5049C169.896 42.1976 171.198 43.75 172.917 43.75C174.259 43.75 175.406 42.7866 175.639 41.4653L177.213 32.5201C177.447 31.1926 178.6 30.2246 179.948 30.2246H180.496C181.528 30.2246 182.41 29.4834 182.588 28.4673C182.816 27.1674 181.816 25.9766 180.496 25.9766H169.88C168.848 25.9766 167.966 26.7178 167.788 27.7339L167.753 27.9299Z" fill="#1AB248"/>
<path d="M195.495 43.75C196.807 43.75 197.93 42.8079 198.158 41.5156L200.209 29.8966C200.57 27.8516 198.997 25.9766 196.92 25.9766C195.734 25.9766 194.637 26.6059 194.038 27.6298L190.427 33.8013C190.208 34.2244 190.016 34.5988 189.854 34.9243C189.705 35.2287 189.568 35.5107 189.442 35.7702C189.432 35.7904 189.412 35.8032 189.39 35.8032C189.352 35.8032 189.324 35.7685 189.332 35.7318C189.392 35.4583 189.452 35.1606 189.512 34.8389C189.585 34.4808 189.662 34.0902 189.744 33.667L190.545 29.1595C190.84 27.4998 189.564 25.9766 187.878 25.9766C186.564 25.9766 185.439 26.9201 185.21 28.2145L183.16 39.8298C182.799 41.8749 184.372 43.75 186.449 43.75C187.635 43.75 188.732 43.1208 189.332 42.097L192.979 35.8643C193.198 35.4329 193.377 35.083 193.516 34.8145C193.649 34.5556 193.786 34.2779 193.927 33.9813C193.937 33.9608 193.957 33.9478 193.98 33.9478C194.017 33.9478 194.045 33.9823 194.037 34.0188C193.977 34.2993 193.913 34.5971 193.845 34.9121C193.78 35.2458 193.711 35.612 193.638 36.0107L192.831 40.575C192.539 42.2312 193.813 43.75 195.495 43.75Z" fill="#1AB248"/>
</svg>
